<?xml version="1.0" encoding="UTF-8"?>
<svg id="Layer_2" data-name="Layer 2" xmlns="http://www.w3.org/2000/svg" viewBox="0 0 1267.71 207.05">
  <defs>
    <style>
      .cls-1 {
        fill: #00ce84;
      }

      .cls-1, .cls-2, .cls-3, .cls-4, .cls-5 {
        stroke-width: 0px;
      }

      .cls-2 {
        fill: #00ea96;
      }

      .cls-3 {
        fill: #00ce83;
      }

      .cls-4 {
        fill: #3a3a3a;
      }

      .cls-5 {
        fill: #02bf76;
      }
    </style>
  </defs>
  <g id="Layer_1-2" data-name="Layer 1">
    <g>
      <path class="cls-4" d="m260.5,114.93c1.82,8.66,6.01,15.32,12.54,19.95,6.54,4.64,14.52,6.95,23.94,6.95,13.07,0,22.88-4.71,29.42-14.14l20.29,11.86c-11.25,16.57-27.9,24.86-49.94,24.86-18.55,0-33.52-5.66-44.92-16.99-11.4-11.32-17.1-25.65-17.1-42.98s5.62-31.28,16.88-42.76c11.25-11.48,25.69-17.22,43.33-17.22,16.72,0,30.44,5.85,41.16,17.56,10.72,11.71,16.08,25.92,16.08,42.64,0,2.59-.31,6.01-.91,10.26h-90.76Zm-.23-20.07h67.04c-1.67-9.27-5.51-16.26-11.51-20.98-6.01-4.71-13.04-7.07-21.09-7.07-9.12,0-16.72,2.51-22.8,7.52-6.08,5.02-9.96,11.86-11.63,20.52Z"/>
      <path class="cls-4" d="m459.57,47.43h24.63v114.02h-24.63v-16.42c-9.27,12.92-22.58,19.38-39.91,19.38-15.66,0-29.04-5.81-40.13-17.44-11.1-11.63-16.65-25.8-16.65-42.53s5.55-31.09,16.65-42.64c11.09-11.55,24.47-17.33,40.13-17.33,17.33,0,30.63,6.38,39.91,19.15v-16.19Zm-61.8,83.12c6.84,6.92,15.43,10.38,25.77,10.38s18.93-3.46,25.77-10.38c6.84-6.91,10.26-15.62,10.26-26.11s-3.42-19.19-10.26-26.11c-6.84-6.91-15.43-10.38-25.77-10.38s-18.93,3.46-25.77,10.38c-6.84,6.92-10.26,15.62-10.26,26.11s3.42,19.19,10.26,26.11Z"/>
      <path class="cls-4" d="m533.68,66.59c6.23-14.14,17.94-21.21,35.12-21.21v26.68c-9.43-.61-17.64,1.64-24.63,6.73-6.99,5.1-10.49,13.49-10.49,25.2v57.46h-24.63V47.43h24.63v19.15Z"/>
      <path class="cls-4" d="m643.14,44.47c13.07,0,23.64,4.18,31.7,12.54,8.06,8.36,12.08,19.84,12.08,34.43v70.01h-24.63v-67.5c0-8.51-2.28-15.05-6.84-19.61-4.56-4.56-10.8-6.84-18.7-6.84-8.67,0-15.66,2.7-20.98,8.1-5.32,5.4-7.98,13.65-7.98,24.74v61.11h-24.63V47.43h24.63v14.59c7.45-11.7,19.23-17.56,35.34-17.56Z"/>
      <path class="cls-3" d="m773.11,44.47c15.96,0,29.57,5.81,40.82,17.44,11.25,11.63,16.88,25.81,16.88,42.53s-5.63,30.9-16.88,42.53c-11.25,11.63-24.85,17.44-40.82,17.44-18.85,0-33.22-7.52-43.1-22.58v65.22h-19.84V47.43h19.84v19.61c9.88-15.05,24.25-22.58,43.1-22.58Zm-2.51,100.79c11.4,0,20.98-3.91,28.73-11.74,7.75-7.83,11.63-17.52,11.63-29.07s-3.88-21.24-11.63-29.07c-7.75-7.83-17.33-11.74-28.73-11.74s-21.21,3.91-28.96,11.74c-7.75,7.83-11.63,17.52-11.63,29.07s3.88,21.25,11.63,29.07c7.75,7.83,17.4,11.74,28.96,11.74Z"/>
      <path class="cls-3" d="m870.48,66.59c6.54-14.14,18.39-21.21,35.57-21.21v20.75c-9.73-.46-18.09,2.13-25.08,7.75-7,5.63-10.49,14.67-10.49,27.14v60.43h-19.84V47.43h19.84v19.15Z"/>
      <path class="cls-3" d="m931.59,26.68c-3.8,0-6.99-1.29-9.58-3.88-2.59-2.58-3.87-5.7-3.87-9.35s1.29-6.8,3.87-9.46c2.58-2.66,5.78-3.99,9.58-3.99s6.76,1.33,9.35,3.99c2.58,2.66,3.87,5.82,3.87,9.46s-1.29,6.77-3.87,9.35c-2.59,2.59-5.7,3.88-9.35,3.88Zm-10.03,134.77V47.43h19.84v114.02h-19.84Z"/>
      <path class="cls-3" d="m1090.98,44.47c12.77,0,23.11,4.14,31.01,12.43,7.9,8.29,11.86,19.5,11.86,33.63v70.92h-19.84v-70.23c0-8.81-2.28-15.66-6.84-20.52-4.56-4.86-10.64-7.3-18.24-7.3-8.52,0-15.32,2.85-20.41,8.55-5.09,5.7-7.64,14.41-7.64,26.11v63.39h-19.84v-70.23c0-8.81-2.17-15.66-6.5-20.52-4.33-4.86-10.23-7.3-17.67-7.3-8.36,0-15.32,2.89-20.86,8.66-5.55,5.78-8.32,14.44-8.32,26v63.39h-19.84V47.43h19.84v15.28c7.75-12.16,19.08-18.24,33.98-18.24s26.53,6.46,33.52,19.38c7.9-12.92,19.84-19.38,35.8-19.38Z"/>
      <path class="cls-3" d="m1171.48,113.56c1.97,10.19,6.65,18.09,14.02,23.71,7.37,5.63,16.46,8.44,27.25,8.44,15.05,0,26-5.55,32.84-16.65l16.87,9.58c-11.1,17.18-27.82,25.77-50.16,25.77-18.1,0-32.8-5.66-44.13-16.99-11.33-11.32-16.99-25.65-16.99-42.98s5.55-31.47,16.64-42.87c11.1-11.4,25.46-17.1,43.1-17.1,16.72,0,30.37,5.89,40.93,17.67,10.57,11.78,15.85,25.96,15.85,42.53,0,2.89-.23,5.85-.68,8.89h-95.55Zm39.45-50.4c-10.64,0-19.46,3-26.45,9.01-7,6.01-11.33,14.02-13,24.06h76.16c-1.68-10.79-5.93-19-12.77-24.63-6.84-5.62-14.82-8.44-23.95-8.44Z"/>
      <g>
        <polygon class="cls-5" points="85.74 11.66 170.52 96.44 145.67 121.29 85.26 60.87 85.74 11.66"/>
        <polygon class="cls-2" points="85.74 11.66 .96 96.44 25.81 121.29 86.23 60.87 85.74 11.66"/>
      </g>
      <rect class="cls-1" y="147.7" width="171.49" height="19.1"/>
    </g>
  </g>
</svg>